<?xml version="1.0" encoding="utf-8"?>
<!-- Generator: Adobe Illustrator 15.1.0, SVG Export Plug-In . SVG Version: 6.00 Build 0)  -->
<!DOCTYPE svg PUBLIC "-//W3C//DTD SVG 1.1//EN" "http://www.w3.org/Graphics/SVG/1.1/DTD/svg11.dtd">
<svg version="1.1" id="Layer_1" xmlns="http://www.w3.org/2000/svg" xmlns:xlink="http://www.w3.org/1999/xlink" x="0px" y="0px"
	 width="341.665px" height="337.897px" viewBox="0 0 341.665 337.897" enable-background="new 0 0 341.665 337.897"
	 xml:space="preserve">
<g id="XMLID_2_">
	<g>
		<path fill="#F4DCB5" d="M340.911,158.339c4.268,68.745-30.722,118.404-70.3,146.977c-23.793,17.189-54.066,30.055-91.465,31.826
			c-2.294,0.471-6.504-0.978-7.56,0.759c-1.502,0-3.017,0-4.531,0C68.375,328.794,11.107,274.19,0.002,176.528
			c0-4.047,0-8.083,0-12.13c0.585-0.161,0.883-0.632,0.757-1.506C9.214,64.735,71.392,9.224,165.541,0.002c0.505,0,1.009,0,1.514,0
			c0.31,0,0.62,0,0.929,0c51.738,0,89.618,19.167,119.261,46.209C316.017,72.473,337.894,109.6,340.911,158.339z M331.837,174.252
			c1.893-43.025-14.329-78.427-34.771-104.55c-21.246-27.158-49.157-45.991-86.165-55.305c-5.254-2.058-11.851-2.771-18.148-3.794
			c-3.292,0.184-7.158-1.92-9.063-0.748c-6.849-1.299-18.848-1.219-25.708,0c-3.786-0.517-5.851,0.702-9.063,0.748
			c-2.18,0.862-5.896,0.161-7.56,1.518c-2.65-0.126-4.841,0.207-6.046,1.518c-6.516,0.552-11.77,2.346-16.634,4.542
			c-4.027,0.759-7.262,2.322-10.577,3.794c-4.142,1.909-8.879,3.231-12.103,6.06C53.048,51.03,14.102,94.848,9.834,154.556
			c-6.436,90.016,51.554,156.738,135.298,171.972c-0.47-2.805-3.085-3.461-2.26-7.577c1.262-4.023,5.117-5.473,6.803-9.083
			c-3.843-3.656-8.237-6.749-6.057-12.889c2.18-6.117,11.013-2.576,15.877-6.06c-14.167-4.656-27.566-7.117-40.06-12.878
			c-38.35-17.66-71.056-57.558-71.056-108.332c0-74.782,56.533-121.279,125.479-124.245c1.044,1.725,5.266,0.276,7.56,0.747
			c9.35,0.725,18.711,1.449,24.939,5.312c-1.422-0.172-1.663,0.851-3.017,0.759c-6.849-1.299-16.474-3.61-22.68-3.036
			c7.238,4.829,16.806,3.173,24.193,5.3c41.391,11.969,77.057,49.877,83.905,94.708c0.688,4.553-1.755,9.727,3.018,13.637
			c-4.429-60.72-37.915-92.316-85.42-109.862c0.976-1.046,3.579-0.46,4.543-1.506c46.679,18.822,84.72,55.638,84.662,116.668
			c-0.034,22.467-6.585,43.956-15.877,59.846c-18.813,32.16-50.648,52.879-92.979,60.617c-2.019,0.367-6.895-0.69-7.56,3.023
			c8.982,1.253,18.08-0.494,18.905,7.577c0.505,5.024-4.348,7.358-5.3,10.612c0.207,3.196,3.98,5.53,4.543,9.843
			c0.459,3.553-2.765,4.575-0.757,6.817c37.914-6.554,70.219-24.674,92.968-50.004C312.518,250.931,329.875,218.967,331.837,174.252
			z M288.003,174.252c2.982-0.954,1.56-7.267-2.271-6.06c-0.046,0.966-0.964,1.046-0.758,2.276
			C285.031,172.688,285.249,174.734,288.003,174.252z M290.263,181.07c-5.805,23.479-13.961,44.588-27.211,60.604
			c-2.834,2.208-5.357,4.737-7.561,7.577c-10.232,10.198-23.139,19.305-37.03,25.008c-4.417,1.805-11.335,2.242-13.606,7.577
			C251.763,267.234,284.596,234.478,290.263,181.07z M266.08,231.074c3.831-5.611,13.101-17.558,12.091-24.249
			c-0.665-4.415-9.017-8.969-14.362-9.843c-22.152-3.645-43.226,1.564-67.271-0.759c3.533,20.559-7.308,66.228,6.045,80.301
			C229.726,268.568,251.189,252.828,266.08,231.074z M265.323,145.461c7.582-0.713,11.035-6.244,15.877-10.601
			c-11.954-36.517-36.183-60.708-71.057-74.253c-23.575,16.085-7.583,48.67-13.605,84.095
			C225.711,143.012,246.36,147.243,265.323,145.461z M240.383,183.347c23.104,5.887,29.528-20.535,15.108-28.791
			c-5.679,1.161-11.793-2.771-15.108,0.759c-1.767,5.059-0.264,13.372-0.757,19.696C239.546,178.115,239.477,181.22,240.383,183.347
			z M229.795,170.469c-0.425-5.392,0.895-12.521-0.758-16.672c-2.673-0.402-3.889,0.644-4.531,2.277
			c-2.833,2.208-5.357,4.726-7.56,7.577c-4.807-2.76-6.149-8.991-13.605-9.095c0.332,9.601-2.754,20.523,1.514,28.032
			c6.643-1.161,0.631-15.028,3.774-19.696c3.178,1.862,4.589,5.507,8.317,6.818c2.707-1.356,5.449-6.634,7.56-6.059
			c2.157,4.426-3.545,18.822,3.774,18.937c0.597-0.173,0.884-0.633,0.757-1.518C230.781,179.023,229.313,173.769,229.795,170.469z
			 M188.221,310.627c0-0.759,0-1.518,0-2.276c-0.757,0-1.515,0-2.271,0c0,0.506,0,1.012,0,1.518
			C186.925,309.903,187.005,310.834,188.221,310.627z M187.464,304.557c0.975-0.782,1.95-7.957-0.758-7.577
			C187.108,299.037,184.939,304.625,187.464,304.557z M190.492,284.102c-1.938-1.874-6.631-0.92-9.831,0
			c-0.035,1.047,0.355,1.667,0.757,2.276C185.146,286.332,189.093,286.493,190.492,284.102z M182.933,225.773
			c5.667-4.427,3.212-24.215,1.514-31.067c-6.252,1.069-6.39,8.256-12.103,9.854c-5.587-2.736-7.525-9.117-14.363-10.612
			c-0.792,4.588-2.076,7.302-0.757,11.371c-1.25,4.048-1.25,13.361,0,17.42c6.998,5.726,2.329-16.821,5.3-19.696
			c5.403,7.646,13.422,9.141,18.894,0.759C182.382,211.597,178.745,220.829,182.933,225.773z M184.446,256.07
			c-0.47-0.035-0.895-0.104-0.757-0.759c-2.122-3.186-9.831-0.748-14.363-1.507c-3.43-7.197,3.005-20.04-3.786-24.248
			c-2.168,3.15-2.329,9.681-1.514,13.636c-1.25,2.806-1.25,10.843,0,13.637C166.355,259.934,181.797,261.106,184.446,256.07z
			 M182.175,296.979c-0.757,0-1.514,0-2.271,0c1.744,2.563-1.789,5.266,1.515,7.577C182.76,303.131,181.969,299.555,182.175,296.979
			z M180.661,181.07c4.955-10.912-9.854-12.246-12.849-19.696c1.331-0.69,1.25-2.794,3.017-3.035
			c2.088,0.632,4.451,3.507,6.814,1.518c0.195-7.29-9.476-6.795-13.617-3.783c-5.105,14.568,11.896,11.889,12.103,23.478
			c-0.758,0-0.906,0.621-1.515,0.76c-5.323,1.552-5.919-4.829-9.832-2.266C164.669,186.462,177.793,187.394,180.661,181.07z
			 M164.784,107.587c3.591,4.289,15.43,4.3,14.363-3.794c-3.878-0.598-4.956,1.598-8.317,1.518c-5.277-2.173-5.277-16.764,0-18.937
			c3.029,0,4.542,1.506,7.56,1.506c1.893-6.646-6.757-6.979-9.82-6.06C162.008,83.787,159.736,101.54,164.784,107.587z
			 M170.83,118.188c4.199-1.081,5.093,4.013,8.317,1.518c-0.723-9.474-15.831-7.048-15.866,1.518
			c-0.034,8.428,18.378,11.061,9.82,19.696c-3.82,0.035-5.334-5.416-9.074-3.035c-0.321,6.381,5.621,6.496,9.832,8.336
			c14.512-7.209-0.069-18.845-5.289-25.755C168.994,119.373,169.751,118.614,170.83,118.188z M176.13,296.979
			c-3.132-0.104-0.792,5.277-1.515,7.577C177.747,304.671,175.406,299.29,176.13,296.979z M173.858,56.066
			c0.55-2.311-0.769-2.76-0.757-4.542c-1.01,0-2.019,0-3.017,0c-1.044,0.978-0.757,3.289-0.757,5.301
			C171.575,57.733,171.896,57.032,173.858,56.066z M170.084,296.979c-1.01,0-2.019,0-3.029,0c0.574,3.909-0.401,4.852,0.757,7.577
			C171.506,304.981,169.613,299.808,170.084,296.979z M162.524,300.773c-0.31-1.828,1.376-1.644,0.757-3.794
			c-0.757,0-1.514,0-2.271,0c-1.48,1.058-0.918,6.438,0,7.577C163.258,305.465,164.256,301.371,162.524,300.773z M148.918,284.86
			c3.235-0.655,8.661,3.128,9.063-1.518c-3.212-0.046-5.289-1.265-9.063-0.747C148.918,283.343,148.918,284.102,148.918,284.86z
			 M155.721,296.979c-3.132-0.104-0.792,5.277-1.515,7.577C157.706,304.258,155.342,298.716,155.721,296.979z M140.601,54.548
			c7.101-2.023,15.304-0.851,22.68-5.3c-32.373,2.15-54.055,15.028-72.57,31.067c-3.591,2.955-6.872,6.244-9.832,9.842
			c-15.751,17.799-26.396,40.714-29.471,71.217c4.612-6.795,4.268-15.004,6.046-21.972C68.283,97.021,100.427,65.988,140.601,54.548
			z M149.675,303.809c-0.631-1.908,1.468-6.53-1.514-6.07C147.071,299.061,147.84,303.096,149.675,303.809z M147.404,170.469
			c0.264-10.279-9.085-19.569-21.922-14.395c-1.296,7.945-1.182,20.823,0,28.791C135.301,186.716,147.105,181.771,147.404,170.469z
			 M145.132,144.702c-1.457-24.145,8.891-72.965-10.577-84.095c-35.838,12.326-59.792,36.551-72.571,71.976
			c8.787,14.901,24.469,12.004,42.331,12.119C116.935,144.783,130.391,144.576,145.132,144.702z M144.375,264.406
			c3.166-20.995-1.399-48.142,0.757-68.183c-15.372,0.449-48.434-2.139-62.739-0.759c-7.571,0.725-18.263,5.06-18.894,11.36
			c-0.688,6.91,8.111,17.902,12.091,23.49c14.649,20.558,34.048,38.759,61.982,45.462
			C141.416,273.374,143.676,269.028,144.375,264.406z M106.587,267.441c9.613,5.875,20.316,13.269,30.985,12.878
			c-37.765-14.487-67.351-39.943-79.362-78.795c-1.973-6.358-0.608-14.545-6.045-20.454
			C57.683,221.06,78.481,250.275,106.587,267.441z M109.604,184.864c1.813-6.531,4.072-26.192-1.503-30.308
			c-3.441,4.542-0.195,15.741-2.271,19.696c-6.493-5.37-8.661-15.063-16.634-18.937c-2.466,6.898-2.466,23.398,0,30.296
			c6.516-1.299,0.734-14.912,3.786-19.695C99.257,171.492,101.746,180.863,109.604,184.864z M55.182,173.493
			c1.078-0.185,1.273-1.242,2.271-1.518c-0.149-2.622-0.631-4.921-3.786-4.542C51.97,169.296,51.614,173.24,55.182,173.493z"/>
		<path fill="#2A2A4C" d="M297.065,69.702c20.442,26.123,36.664,61.525,34.771,104.55c-1.962,44.715-19.319,76.679-42.331,102.272
			c-22.749,25.33-55.054,43.45-92.968,50.004c-2.008-2.242,1.216-3.265,0.757-6.817c-0.563-4.313-4.336-6.646-4.543-9.843
			c0.952-3.254,5.805-5.588,5.3-10.612c-0.825-8.071-9.923-6.324-18.905-7.577c0.665-3.714,5.541-2.656,7.56-3.023
			c42.331-7.738,74.166-28.457,92.979-60.617c9.292-15.89,15.843-37.379,15.877-59.846c0.058-61.03-37.983-97.846-84.662-116.668
			c-0.964,1.046-3.567,0.46-4.543,1.506c-1.192-0.058-2.879,0.368-3.017-0.747c1.354,0.092,1.595-0.932,3.017-0.759
			c-6.229-3.863-15.59-4.587-24.939-5.312c-1.044-1.725-5.266-0.276-7.56-0.747C104.912,48.431,48.379,94.928,48.379,169.71
			c0,50.774,32.706,90.672,71.056,108.332c12.493,5.761,25.892,8.222,40.06,12.878c-4.864,3.483-13.697-0.058-15.877,6.06
			c-2.18,6.14,2.214,9.232,6.057,12.889c-1.686,3.61-5.541,5.06-6.803,9.083c-0.826,4.116,1.79,4.772,2.26,7.577
			C61.388,311.294,3.398,244.572,9.834,154.556C14.102,94.848,53.048,51.03,95.999,28.034c0.459,0.046,0.895,0.115,0.757,0.759
			c-0.608,0.138-0.757,0.759-1.514,0.759c4.898,10.245,10.634,19.65,17.391,28.032c19.399-12.188,53.378-18.201,83.905-12.119
			c2.397,0.115,3.326,1.713,6.045,1.506c10.405,2.702,19.675,6.542,28.726,10.612c4.75-9.129,10.302-17.454,14.363-27.273
			c-10.244-7.163-23.082-11.716-37.043-15.154c0.126-0.886,1.377-0.644,2.271-0.759C247.908,23.711,275.819,42.544,297.065,69.702z
			 M328.063,167.434c-0.758,0-0.896-0.609-1.515-0.759c-1.056-2.219-7.25,0.713-8.317-1.518c1.916-0.609,1.928-3.116,3.029-4.542
			c-1.171-2.61-4.142-3.426-6.803-4.542c3.396,0.621,3.372-2.173,5.288-3.036c0.447-6.128-9.797-7.232-9.819-0.759
			c0.55,2.219,2.282,3.266,3.773,4.553c-1.021,1.748-3.04,2.506-2.271,6.06c0.563,1.966,3.063,1.978,4.543,3.024
			c-6.091,1.759-15.234-4.186-16.634,2.276c0.918,2.104,4.646,1.402,7.56,1.518c1.297,1.725,5.771,0.276,8.317,0.759
			c1.331,0.438,4.439-0.92,4.531,0.759c-7.262,5.347-16.611,8.601-20.408,17.419c8.42,0.621,22.875,5.727,28.726,1.519
			c-3.958-4.875-16.095-1.553-21.166-5.301C313.814,178.92,323.508,175.746,328.063,167.434z M322.017,134.86
			c0.539,3.817-2.329,4.231-1.515,8.336c14.455-3.473-0.952-21.386-8.316-9.854c2.088,9.543-10.807,16.454-12.092,5.301
			c-0.092-3.426,6.149-3.507,3.774-6.818c-8.914-2.346-9.556,11.038-4.531,15.913c2.432,1.092,6.344,0.713,9.831,0.759
			C316.35,147.29,312.977,131.698,322.017,134.86z M317.474,229.557c5.116-20.892-20.626-2.208-24.939-6.818
			c0-0.759-0.608-0.897-0.757-1.518c0.274-4.783,5.793-4.289,6.045-9.084c-7.663-2.955-13.077,9.222-7.56,15.143
			c9.384,4.564,13.456-3.817,21.923-4.541c0.401,1.127,1.124,1.908,1.514,3.035c-0.493,3.288-6.114,1.448-6.045,5.301
			C310.315,233.902,314.904,231.154,317.474,229.557z M312.186,125.766c-0.058-1.322,0.172-2.357,0.757-3.036
			c-1.515-3.219-5.679-4.863-9.074-2.265C300.679,125.949,308.503,129.64,312.186,125.766z M306.896,198.501
			c-0.034,4.967,8.856,6.415,9.832-0.759C314.365,191.958,306.932,193.568,306.896,198.501z M304.625,206.825
			C308.641,225.992,320.594,197.615,304.625,206.825L304.625,206.825z M297.822,111.37c1.985,6.703,10.463,4.473,9.832-0.759
			C307.08,105.886,299.268,105.334,297.822,111.37z M294.048,98.493c16.898,6.508,18.47-14.43,6.046-18.937
			c-8.225,4.634-17.815,7.899-23.437,15.143c0,0.771,0.619,0.909,0.757,1.518c5.151-0.391,6.94-4.151,11.346-5.301
			c5.036,6.703-6.206,12.475-3.786,18.937C291.387,109.461,290.045,101.298,294.048,98.493z M291.777,234.098
			c-0.138,9.268,9.808,6.462,9.074,0.759C300.323,230.718,294.323,229.659,291.777,234.098z M294.048,246.987
			c0.678-8.555-13.031-5.438-8.316,2.265C288.989,250.931,293.119,249.838,294.048,246.987z M275.899,268.959
			c5.094-1.219,12.092-0.518,15.878-3.035c-6.241-7.623-12.517-15.234-22.681-18.937c1.71,8.646,11.438,9.244,14.363,16.66
			c-2.1,0.586-6.986,1.115-11.334,1.518c-1.411,3.288,0.355,8.025-1.515,12.118c-6.895-3.438-9.063-11.612-17.38-13.636
			c-0.493,5.013,5.599,8.025,9.063,11.371c3.579,3.438,6.746,9.118,12.104,9.842c0.229-1.023,1.066-1.448,0.757-3.023
			c1.721-1.3,0.275-5.783,0.745-8.336C275.899,271.983,275.899,270.466,275.899,268.959z M285.731,59.849
			c-9.625-1.253-18.183,4.967-27.969,6.071c-0.539-10.153,2.685-19.673,1.515-28.032c-0.757,0-1.515,0-2.271,0
			c-3.028,9.072-3.155,21.076-3.774,32.573C265.254,68.115,278.206,66.701,285.731,59.849z M281.2,69.702
			C265.15,60.906,277.402,88.812,281.2,69.702L281.2,69.702z M250.96,281.078c1.778,6.968,10.543,4.254,9.831-0.759
			C260.114,275.628,252.245,274.846,250.96,281.078z M250.96,287.896c-0.172-6.565-9.659-6.565-9.831,0
			C242.253,292.736,249.687,292.507,250.96,287.896z M250.203,303.05c-6.906-8.991-16.875-14.912-27.211-20.454
			c-0.505,0-1.01,0-1.515,0c-1.445,4.967-1.388,11.245-2.26,17.419c-0.746,5.174-4.635,12.199,0,15.154
			c5.15-5.691,2.707-19.006,6.046-26.514C234.476,292.081,240.269,302.854,250.203,303.05z M125.481,295.473
			c6.803-13.486-17.059-18.672-17.38-4.553c-0.172,7.025,6.493,7.854,6.045,16.672c-0.975,1.046-3.292,0.747-5.3,0.759
			c-3.155-1.782,1.687-7.117-3.017-7.577c-3.602,0.173-2.237,6.784-1.514,9.095c2.937,2.782,10.76,3.186,13.605,0
			c4.589-7.657-13.227-22.949-0.757-23.49C123.394,286.114,120.399,293.3,125.481,295.473z M105.073,292.438
			c3.625-7.082-10.428-10.003-9.074-0.759C97.789,295.024,102.664,295.024,105.073,292.438z M85.422,75.002
			c9.097,1.104,17.494-17.005,5.289-21.213c-2.559-0.207-3.04-2.506-3.774-4.542c-4.508-7.681-18.871-4.07-20.42,3.783
			c1.308,4.564,5.38,7.117,9.074,11.372C77.954,67.115,82.428,74.646,85.422,75.002z M86.936,287.896
			c12.768,5.082,7.239-14.373-0.757-6.06C85.846,284.436,86.477,286.079,86.936,287.896z M84.665,281.078
			c3.522-4.186,8.179-9.313,8.317-14.396c-9.028,2.817-10.6,13.119-18.148,17.419c-0.092-4.955-0.481-9.612-1.514-13.636
			c-2.914-2.116-10.715,0.644-13.605-1.507c4.635-6.473,13.273-8.934,15.877-17.431c-5.977,0.276-9.361,5.933-12.849,9.095
			c-3.728,3.381-9.728,6.163-10.577,12.119c1.422,1.345,4.99,0.552,7.548,0.759c1.79,1.736,6.792,0.265,9.832,0.759
			c0.413,1.092-0.884,3.909,0.757,3.782c1.17,4.381-0.355,11.464,2.271,14.396C77.242,290.23,81.177,285.205,84.665,281.078z
			 M69.545,75.762c0.458-8.945-12.47-6.06-9.074,1.518C63.029,79.763,68.432,78.9,69.545,75.762z M61.985,258.347
			c1.136-3.403,0.401-5.496-1.514-7.577c-2.593-0.333-4.233,0.299-6.046,0.759c-0.172,0.587-0.023,1.495-0.757,1.518
			C52.486,258.795,57.878,260.209,61.985,258.347z M51.408,84.097c0.654,4.875,10.451,6.381,9.063-3.035
			C57.063,76.957,50.857,80.016,51.408,84.097z M23.439,231.074c2.799,16.844,34.289,13.636,34.014-3.036
			c-0.104-5.806-3.075-8.669-8.317-12.118c0.413-1,3.453-5.209,0-5.301c-3.051-0.275-1.17,4.381-4.531,3.783
			C32.158,214,21.42,218.943,23.439,231.074z M46.865,246.987c1.687,12.302,17.254-7.21,3.786-5.313
			C48.092,242.043,46.417,243.664,46.865,246.987z M58.968,108.346c-4.015-11.9-9.373-22.444-18.148-29.549
			c0.608,9.359,9.327,16.821,12.848,25.755c-9.464,2.852-23.139-2.046-29.471,4.542C33.328,111.784,49.652,108.369,58.968,108.346z
			 M45.362,187.888c-1.17-6.404,1.113-16.269-4.543-18.178c-2.616,3.277,0.493,9.475,0,15.154
			c-8.753,2.587-21.923,0.747-27.211,6.818C22.097,194.074,35.324,188.911,45.362,187.888z M38.548,123.489
			c7.973-6.301-6.986-14.004-6.803-3.024C33.11,122.385,34.728,124.041,38.548,123.489z M28.728,128.042
			c-1.182,10.118,9.9,7.358,9.074,1.506C37.309,126.122,31.688,124.317,28.728,128.042z M37.802,209.86
			c0.207-5.817-5.896-7.324-9.074-3.782C26.674,213.632,35.921,214.62,37.802,209.86z M27.971,193.188
			c-8.81,3.61,7.652,15.154,6.803,3.794C34.567,194.224,31.871,191.602,27.971,193.188z M46.108,146.22
			c-4.853-7.29-22.278-5.91-30.229-7.577c-0.596,0.172-0.883,0.632-0.757,1.518C22.132,145.036,37.412,145.553,46.108,146.22z
			 M32.502,156.833c1.503-9.313-13.169-6.531-8.305,1.506C26.583,159.995,31.688,159.132,32.502,156.833z M22.682,162.892
			c-3.155,6.945,7.101,9.888,9.063,3.783C31.47,161.926,26.285,160.178,22.682,162.892z"/>
		<path fill="#FFDFAA" d="M326.548,166.675c0.619,0.149,0.757,0.759,1.515,0.759c-4.555,8.313-14.248,11.486-21.166,17.431
			c5.071,3.748,17.208,0.426,21.166,5.301c-5.851,4.208-20.306-0.897-28.726-1.519c3.797-8.818,13.146-12.072,20.408-17.419
			c-0.092-1.679-3.2-0.321-4.531-0.759c-1.296-1.736-5.771-0.287-8.317-0.759c-2.914-0.115-6.642,0.587-7.56-1.518
			c1.399-6.462,10.543-0.518,16.634-2.276c-1.479-1.046-3.98-1.058-4.543-3.024c-0.769-3.553,1.251-4.312,2.271-6.06
			c-1.491-1.288-3.224-2.334-3.773-4.553c0.022-6.473,10.267-5.369,9.819,0.759c-1.916,0.862-1.893,3.656-5.288,3.036
			c2.661,1.115,5.632,1.932,6.803,4.542c-1.102,1.426-1.113,3.932-3.029,4.542c-0.871-0.115-1.342,0.173-1.502,0.759
			C318.759,167.411,323.324,166.364,326.548,166.675z"/>
		<path fill="#FFDFAA" d="M326.548,166.675c-3.224-0.311-7.789,0.736-9.819-0.759c0.16-0.586,0.631-0.874,1.502-0.759
			C319.298,167.388,325.492,164.456,326.548,166.675z"/>
		<path fill="#FFDFAA" d="M320.502,143.196c-0.814-4.105,2.054-4.519,1.515-8.336c-9.04-3.162-5.667,12.429-12.849,13.636
			c-3.487-0.046-7.399,0.333-9.831-0.759c-5.024-4.875-4.383-18.259,4.531-15.913c2.375,3.312-3.866,3.392-3.774,6.818
			c1.285,11.153,14.18,4.243,12.092-5.301C319.55,121.81,334.957,139.724,320.502,143.196z"/>
		<path fill="#FFDFAA" d="M292.534,222.738c4.313,4.61,30.056-14.073,24.939,6.818c-2.569,1.598-7.158,4.346-9.819,1.518
			c-0.069-3.853,5.552-2.013,6.045-5.301c-0.39-1.127-1.112-1.908-1.514-3.035c-8.467,0.724-12.539,9.105-21.923,4.541
			c-5.518-5.921-0.104-18.098,7.56-15.143c-0.252,4.795-5.771,4.301-6.045,9.084C291.926,221.841,292.534,221.979,292.534,222.738z"
			/>
		<path fill="#FFDFAA" d="M315.214,170.469c-2.547-0.482-7.021,0.966-8.317-0.759C309.443,170.182,313.918,168.733,315.214,170.469z
			"/>
		<path fill="#FFDFAA" d="M312.942,122.73c-0.585,0.678-0.814,1.713-0.757,3.036c-3.683,3.875-11.507,0.184-8.317-5.301
			C307.264,117.867,311.428,119.511,312.942,122.73z"/>
		<path fill="#FFDFAA" d="M316.729,197.742c-0.976,7.174-9.866,5.726-9.832,0.759C306.932,193.568,314.365,191.958,316.729,197.742z
			"/>
		<path fill="#FFDFAA" d="M304.625,206.825C320.594,197.615,308.641,225.992,304.625,206.825L304.625,206.825z"/>
		<path fill="#FFDFAA" d="M307.654,110.611c0.631,5.231-7.847,7.462-9.832,0.759C299.268,105.334,307.08,105.886,307.654,110.611z"
			/>
		<path fill="#2A2A4C" d="M304.625,93.192c-0.733,0.011-0.585,0.919-0.757,1.506c-6.286,2.817-10.727-1.529-11.334-6.818
			C298.637,83.143,303.203,84.741,304.625,93.192z"/>
		<path fill="#FFDFAA" d="M300.094,79.556c12.424,4.507,10.853,25.445-6.046,18.937c-4.003,2.806-2.661,10.969-9.074,11.36
			c-2.42-6.462,8.822-12.234,3.786-18.937c-4.405,1.15-6.194,4.91-11.346,5.301c-0.138-0.609-0.757-0.748-0.757-1.518
			C282.278,87.455,291.869,84.189,300.094,79.556z M303.868,94.698c0.172-0.586,0.023-1.495,0.757-1.506
			c-1.422-8.451-5.988-10.049-12.091-5.312C293.142,93.169,297.582,97.515,303.868,94.698z"/>
		<path fill="#FFDFAA" d="M300.852,234.856c0.733,5.703-9.212,8.509-9.074-0.759C294.323,229.659,300.323,230.718,300.852,234.856z"
			/>
		<path fill="#FFDFAA" d="M285.731,249.252c-4.715-7.703,8.994-10.819,8.316-2.265C293.119,249.838,288.989,250.931,285.731,249.252
			z"/>
		<path fill="#AA2329" d="M291.777,162.892c-4.772-3.91-2.329-9.083-3.018-13.637c-6.849-44.83-42.515-82.738-83.905-94.708
			c-7.388-2.127-16.955-0.471-24.193-5.3c6.206-0.575,15.831,1.736,22.68,3.036c0.138,1.115,1.824,0.689,3.017,0.747
			C253.862,70.576,287.349,102.172,291.777,162.892z"/>
		<path fill="#AA2329" d="M285.731,168.192c3.831-1.208,5.254,5.105,2.271,6.06c2.076-1.495,0.114-7.692-2.271-4.542
			c0.138,0.644-0.299,0.713-0.758,0.759C284.768,169.238,285.686,169.158,285.731,168.192z"/>
		<path fill="#AA2329" d="M285.731,169.71c2.386-3.15,4.348,3.047,2.271,4.542c-2.754,0.482-2.972-1.563-3.029-3.783
			C285.433,170.423,285.869,170.354,285.731,169.71z"/>
		<path fill="#FFDFAA" d="M291.777,265.924c-3.786,2.518-10.784,1.816-15.878,3.035c0,1.507,0,3.024,0,4.542
			c-1.721,1.299-0.274,5.783-0.745,8.336c0.31,1.575-0.527,2-0.757,3.023c-5.357-0.724-8.524-6.404-12.104-9.842
			c-3.464-3.346-9.556-6.358-9.063-11.371c8.317,2.023,10.485,10.198,17.38,13.636c1.87-4.093,0.104-8.83,1.515-12.118
			c4.348-0.402,9.234-0.932,11.334-1.518c-2.926-7.416-12.653-8.015-14.363-16.66C279.261,250.689,285.536,258.301,291.777,265.924z
			"/>
		<path fill="#FFDFAA" d="M257.763,65.919c9.786-1.104,18.344-7.324,27.969-6.071c-7.525,6.853-20.478,8.267-32.5,10.612
			c0.619-11.498,0.746-23.501,3.774-32.573c0.757,0,1.515,0,2.271,0C260.447,46.247,257.224,55.767,257.763,65.919z"/>
		<path fill="#AA2329" d="M263.052,241.675c13.25-16.017,21.406-37.126,27.211-60.604c-5.667,53.407-38.5,86.164-85.408,100.767
			c2.271-5.335,9.189-5.772,13.606-7.577c13.892-5.703,26.798-14.81,37.03-25.008C258.337,247.044,260.849,244.526,263.052,241.675z
			"/>
		<path fill="#DB262A" d="M278.171,206.825c1.01,6.691-8.26,18.638-12.091,24.249c-14.891,21.754-36.354,37.494-63.497,45.45
			c-13.353-14.073-2.512-59.742-6.045-80.301c24.045,2.323,45.118-2.886,67.271,0.759
			C269.154,197.856,277.506,202.41,278.171,206.825z M255.491,230.315c2.559-16.799-7.078-28.584-23.425-30.309
			c-17.288-1.816-30.848,11.21-29.483,28.031C205.05,258.358,251.075,259.347,255.491,230.315z"/>
		<path fill="#FFDFAA" d="M281.2,69.702C277.402,88.812,265.15,60.906,281.2,69.702L281.2,69.702z"/>
		<path fill="#549A77" d="M275.899,273.501c-0.47,2.553,0.976,7.036-0.745,8.336C275.625,279.284,274.179,274.8,275.899,273.501z"/>
		<path fill="#DB262A" d="M281.2,134.86c-4.842,4.357-8.295,9.888-15.877,10.601c-18.963,1.782-39.612-2.449-68.785-0.759
			c6.022-35.424-9.97-68.009,13.605-84.095C245.018,74.152,269.246,98.343,281.2,134.86z M232.823,135.619
			c24.492-2.253,30.55-34.218,11.334-46.98c-19.754-13.107-44.9,2.886-40.816,26.525
			C205.383,126.984,217.244,137.045,232.823,135.619z"/>
		<path fill="#FFDFAA" d="M260.791,280.319c0.712,5.013-8.053,7.727-9.831,0.759C252.245,274.846,260.114,275.628,260.791,280.319z"
			/>
		<path fill="#C2D3C6" d="M263.052,241.675c-2.203,2.852-4.715,5.369-7.561,7.577C257.694,246.412,260.218,243.883,263.052,241.675z
			"/>
		<path fill="#A27A3E" d="M255.491,154.556c14.42,8.255,7.996,34.677-15.108,28.791c-0.906-2.127-0.837-5.231-0.757-8.336
			c1.755-5.06,0.252-13.384,0.757-19.696C243.698,151.785,249.813,155.717,255.491,154.556z M244.914,178.793
			c14.776,2.541,17.392-14.59,8.317-19.695c-2.776,0-5.553,0-8.317,0c-1.743,2.046-0.275,7.313-0.757,10.612
			C245.201,172.55,244.57,174.264,244.914,178.793z"/>
		<path fill="#FFDFAA" d="M232.066,200.007c16.347,1.725,25.983,13.51,23.425,30.309c-4.416,29.031-50.441,28.043-52.908-2.277
			C201.219,211.217,214.778,198.19,232.066,200.007z M236.598,246.987c29.207-8.451,14.087-52.327-15.877-43.187
			c-14.615,4.462-19.101,26.664-8.306,37.874C217.554,247.033,226.731,249.838,236.598,246.987z"/>
		<path fill="#FFDFAA" d="M253.231,159.098c9.074,5.105,6.459,22.236-8.317,19.695c-0.344-4.529,0.287-6.243-0.757-9.083
			c1.744-2.046,0.264-7.313,0.757-10.612C247.679,159.098,250.455,159.098,253.231,159.098z"/>
		<path fill="#2A2A4C" d="M253.231,105.311c3.557,27.238-33.085,34.976-43.845,15.154c-0.104-0.195,0.103-0.563,0-0.759
			C192.603,86.455,249.171,74.221,253.231,105.311z M219.963,119.706c3.396,16.707,26.81,7.221,21.166-5.3
			c-2.685-5.967-14.501-9.015-15.108-14.396c-1.411-12.417,12.172-2.633,15.108-4.553c0.104-5.427-12.631-8.29-17.38-3.024
			c-8.845,13.683,12.298,16.338,13.605,24.238c0.78,4.714-1.595,7.68-5.288,8.336C224.931,126.271,226.308,120.752,219.963,119.706z
			"/>
		<path fill="#FFDFAA" d="M241.129,287.896c0.172-6.565,9.659-6.565,9.831,0C249.687,292.507,242.253,292.736,241.129,287.896z"/>
		<path fill="#FCE1B8" d="M244.157,88.639c19.216,12.762,13.158,44.727-11.334,46.98c-15.579,1.426-27.44-8.635-29.482-20.455
			C199.257,91.525,224.403,75.532,244.157,88.639z M209.387,120.465c10.76,19.822,47.401,12.084,43.845-15.154
			c-4.061-31.09-60.629-18.856-43.845,14.395C209.489,119.901,209.283,120.27,209.387,120.465z"/>
		<path fill="#A27A3E" d="M244.914,159.098c-0.493,3.3,0.987,8.566-0.757,10.612C244.639,166.41,243.171,161.144,244.914,159.098z"
			/>
		<path fill="#FCE1B8" d="M241.129,114.406c5.644,12.521-17.77,22.007-21.166,5.3c6.345,1.046,4.968,6.565,12.104,5.301
			c3.693-0.656,6.068-3.622,5.288-8.336c-1.308-7.899-22.45-10.555-13.605-24.238c4.749-5.266,17.483-2.403,17.38,3.024
			c-2.937,1.92-16.52-7.864-15.108,4.553C226.628,105.391,238.444,108.438,241.129,114.406z"/>
		<path fill="#A27A3E" d="M240.383,155.315c-0.505,6.312,0.998,14.636-0.757,19.696
			C240.119,168.687,238.616,160.374,240.383,155.315z"/>
		<path fill="#FFDFAA" d="M245.672,30.311c-4.062,9.819-9.613,18.144-14.363,27.273c-9.051-4.07-18.32-7.911-28.726-10.612
			c0-0.506,0-1.012,0-1.506c10.681,1.414,18.103,6.094,27.212,9.083c5.827-6.531,9.28-15.441,13.605-23.479
			c-11.701-7.474-26.328-12.003-41.574-15.913c-2.317,0.552-2.226-1.311-4.531-0.759c-0.068,3.427-4.004,8.279-6.046,12.119
			c1.939,4.185,3.866,9.118,3.018,14.395c-2.708,0.069-3.763-6.393-4.531-10.601c-3.958,1.334-3.167,7.439-6.803,9.083
			c-3.58-4.657,4.761-8.692,5.288-14.396c0.379-4.173-4.497-7.313-0.757-10.601c3.729,0.978,1.146,6.29,3.785,6.818
			c0.104-3.426,3.361-3.702,3.018-7.577c-17.885-2.127-37.043-2.46-52.151,1.518c-16.852,2.805-31.215,8.106-43.845,15.154
			c3.66,9.198,9.533,16.201,14.363,24.237c11.609-4.771,23.139-9.635,37.042-12.119c2.478-0.034,3.763-1.276,6.803-0.759
			c5.541-0.494,13.089,1,17.38-0.759c2.042,1.495,6.607,0.448,9.831,0.759c1.927-0.667,5.208-0.195,7.56,0.759
			c0.471,1.794,4.646-0.115,5.289,1.518c0,0.506,0,1.012,0,1.518c-30.527-6.083-64.506-0.069-83.905,12.119
			c-6.757-8.382-12.493-17.787-17.391-28.032c0.757,0,0.906-0.621,1.514-0.759c3.166-2.633,8.363-3.242,11.346-6.06
			c4.52-0.517,7.583-2.495,11.334-3.794c5.002-1.805,10.245-3.369,15.877-4.542c2.776-0.494,5.082-1.472,8.306-1.518
			c2.019-0.494,4.727-0.311,6.057-1.518c3.579,0.563,5.197-0.851,8.306-0.759c7.732-0.345,13.709,0.149,22.68,0
			c4.485-0.449,6.733,1.333,11.334,0.759c5.024,1.793,11.942,1.679,16.634,3.794C222.59,18.594,235.428,23.147,245.672,30.311z"/>
		<path fill="#FFDFAA" d="M222.992,282.596c10.336,5.542,20.305,11.463,27.211,20.454c-9.935-0.195-15.728-10.969-24.939-14.395
			c-3.339,7.508-0.896,20.822-6.046,26.514c-4.635-2.955-0.746-9.98,0-15.154c0.872-6.174,0.814-12.452,2.26-17.419
			C221.982,282.596,222.487,282.596,222.992,282.596z"/>
		<path fill="#A27A3E" d="M243.4,31.069c-4.325,8.037-7.778,16.948-13.605,23.479c-9.109-2.989-16.531-7.669-27.212-9.083
			c-1.847-0.678-3.28-1.771-6.045-1.518c-0.643-1.633-4.818,0.276-5.289-1.518c2.008,0,4.027,0,6.046,0
			c0.654-9.945,3.074-18.132,4.531-27.272C217.072,19.066,231.699,23.596,243.4,31.069z M235.083,43.188
			c7.182-16.338-16.943-23.398-30.229-25.007c-2.948,7.404-4.669,16.039-6.803,24.249C210.603,44.533,229.428,56.077,235.083,43.188
			z"/>
		<path fill="#2A2A4C" d="M220.721,203.801c29.964-9.141,45.084,34.735,15.877,43.187c-9.866,2.851-19.044,0.046-24.183-5.313
			C201.62,230.465,206.105,208.263,220.721,203.801z M221.478,242.434c16.508,9.762,31.135-11.521,15.12-20.454
			c9.739-6.117-0.906-20.524-15.12-15.154C221.248,216.046,221.649,230.798,221.478,242.434z"/>
		<path fill="#FFDFAA" d="M236.598,221.979c16.015,8.934,1.388,30.216-15.12,20.454c0.172-11.636-0.229-26.388,0-35.608
			C235.691,201.455,246.337,215.862,236.598,221.979z M225.264,239.41c16.68,7.427,20.041-18.189,0-14.396
			C224.931,231.453,225.63,231.718,225.264,239.41z M226.021,222.738c13.043,2.299,13.571-16.258-0.757-12.878
			C225.527,215.563,224.885,219.186,226.021,222.738z"/>
		<path fill="#FFDFAA" d="M204.854,18.181c13.285,1.609,37.41,8.669,30.229,25.007c-5.655,12.889-24.48,1.345-37.031-0.759
			C200.186,34.22,201.906,25.585,204.854,18.181z M233.568,38.635c0.563-4.852-0.917-7.646-3.773-9.083
			c1.33,4.346,3.499,6.037,2.271,11.36c-1.48,3.829-6.78,3.817-9.074,6.818C228.578,46.764,233.34,44.97,233.568,38.635z
			 M220.721,35.611c6.585,4.357,11.208-7.577,3.028-7.577C224.563,32.392,222.464,33.817,220.721,35.611z M222.234,31.817
			c0.941-4.484-1.56-9.509-4.531-7.565c2.719,3.76-0.78,7.772-3.028,9.083C217.222,34.53,220.296,33.334,222.234,31.817z
			 M219.218,44.706c5.403,3.806,7.376-6.267,2.26-6.818C222.028,41.463,220.399,42.866,219.218,44.706z M219.218,41.67
			c0.355-2.886-0.321-4.726-2.271-5.3c0.643,4.68-1.813,6.266-4.531,7.577C216.144,44.648,217.531,43.016,219.218,41.67z
			 M216.189,29.552c0.929-5.484-1.744-7.347-5.289-8.336c1.858,3.852,1.09,5.853-0.757,9.095
			C212.254,32.334,213.872,29.598,216.189,29.552z M214.675,40.153c0.688-4.473-1.136-6.427-4.531-6.818
			c-0.976,3.07-0.849,7.232-3.028,9.095C210.935,42.981,212.839,41.59,214.675,40.153z M210.144,26.517
			c-0.838-2.196-0.94-5.117-3.786-5.301c-1.192,1.932-2.982,6.117-1.503,8.336C207.608,29.541,208.251,27.39,210.144,26.517z
			 M207.115,39.394c-0.161-2.863,0.769-6.83-2.261-6.818c-0.126-0.874-1.204-0.816-2.271-0.759c0.379,3.921-2.145,4.933-1.514,9.095
			C204.029,41.349,205.463,40.256,207.115,39.394z"/>
		<path fill="#A27A3E" d="M229.795,29.552c2.856,1.438,4.336,4.231,3.773,9.083c-1.078,0.172-0.252,2.265-1.502,2.276
			C233.294,35.588,231.125,33.898,229.795,29.552z"/>
		<path fill="#A27A3E" d="M232.066,40.912c1.25-0.012,0.424-2.104,1.502-2.276c-0.229,6.335-4.99,8.129-10.576,9.095
			C225.286,44.729,230.586,44.74,232.066,40.912z"/>
		<path fill="#2A2A4C" d="M225.264,225.015c20.041-3.794,16.68,21.822,0,14.396C225.63,231.718,224.931,231.453,225.264,225.015z"/>
		<path fill="#A27A3E" d="M229.037,153.797c1.652,4.151,0.333,11.28,0.758,16.672c-1.744,2.035-0.264,7.302-0.758,10.602
			c0.127,0.885-0.16,1.345-0.757,1.518c-7.319-0.115-1.617-14.511-3.774-18.937c-2.11-0.575-4.853,4.703-7.56,6.059
			c-3.729-1.311-5.14-4.956-8.317-6.818c-3.144,4.668,2.868,18.535-3.774,19.696c-4.268-7.509-1.182-18.431-1.514-28.032
			c7.456,0.104,8.799,6.335,13.605,9.095c2.833-2.208,5.357-4.737,7.56-7.577C225.148,154.441,226.364,153.395,229.037,153.797z"/>
		<path fill="#A27A3E" d="M229.795,170.469c-0.482,3.3,0.986,8.555-0.758,10.602C229.531,177.771,228.051,172.504,229.795,170.469z"
			/>
		<path fill="#2A2A4C" d="M225.264,209.86c14.328-3.38,13.8,15.177,0.757,12.878C224.885,219.186,225.527,215.563,225.264,209.86z"
			/>
		<path fill="#A27A3E" d="M223.749,28.034c8.18,0,3.557,11.935-3.028,7.577C222.464,33.817,224.563,32.392,223.749,28.034z"/>
		<path fill="#A27A3E" d="M217.703,24.251c2.972-1.943,5.473,3.081,4.531,7.565c-1.938,1.518-5.013,2.713-7.56,1.518
			C216.923,32.024,220.422,28.011,217.703,24.251z"/>
		<path fill="#A27A3E" d="M221.478,37.888c5.116,0.552,3.144,10.624-2.26,6.818C220.399,42.866,222.028,41.463,221.478,37.888z"/>
		<path fill="#A27A3E" d="M216.946,36.37c1.95,0.575,2.627,2.415,2.271,5.3c-1.687,1.345-3.074,2.978-6.803,2.277
			C215.134,42.636,217.589,41.05,216.946,36.37z"/>
		<path fill="#A27A3E" d="M224.506,156.074c-2.202,2.84-4.727,5.37-7.56,7.577C219.148,160.799,221.673,158.281,224.506,156.074z"/>
		<path fill="#A27A3E" d="M210.9,21.216c3.545,0.989,6.218,2.852,5.289,8.336c-2.317,0.046-3.936,2.783-6.046,0.759
			C211.99,27.068,212.759,25.068,210.9,21.216z"/>
		<path fill="#A27A3E" d="M210.144,33.334c3.396,0.391,5.22,2.346,4.531,6.818c-1.836,1.437-3.74,2.829-7.56,2.276
			C209.295,40.567,209.168,36.404,210.144,33.334z"/>
		<path fill="#2A2A4C" d="M210.9,14.397c-0.895,0.115-2.146-0.126-2.271,0.759c-4.691-2.116-11.609-2.001-16.634-3.794
			c0.653,0.138,0.723-0.288,0.757-0.759C199.05,11.627,205.646,12.339,210.9,14.397z"/>
		<path fill="#A27A3E" d="M206.357,21.216c2.846,0.184,2.948,3.104,3.786,5.301c-1.893,0.874-2.535,3.024-5.289,3.035
			C203.375,27.333,205.165,23.147,206.357,21.216z"/>
		<path fill="#A27A3E" d="M204.854,32.576c3.029-0.011,2.1,3.955,2.261,6.818c-1.652,0.862-3.086,1.955-6.046,1.518
			c-0.631-4.162,1.893-5.174,1.514-9.095C203.65,31.759,204.729,31.702,204.854,32.576z"/>
		<path fill="#FFDFAA" d="M202.583,45.465c0,0.494,0,1,0,1.506c-2.719,0.207-3.647-1.392-6.045-1.506c0-0.506,0-1.012,0-1.518
			C199.303,43.694,200.736,44.787,202.583,45.465z"/>
		<path fill="#2A2A4C" d="M197.295,14.397c2.306-0.552,2.214,1.311,4.531,0.759c-1.457,9.141-3.877,17.327-4.531,27.272
			c-2.019,0-4.038,0-6.046,0c-2.352-0.954-5.633-1.426-7.56-0.759c-4.13-1.426-9.487-1.609-15.12-1.518
			c-3.051,1.495-9.292-0.219-12.091,1.518c-3.04-0.517-4.325,0.725-6.803,0.759c-0.757,0-1.514,0-2.271,0
			c-1.663-9.198-3.35-18.362-5.289-27.272c15.108-3.979,34.267-3.645,52.151-1.518c0.344,3.875-2.914,4.151-3.018,7.577
			c-2.639-0.529-0.057-5.841-3.785-6.818c-3.74,3.289,1.136,6.428,0.757,10.601c-0.527,5.703-8.868,9.739-5.288,14.396
			c3.636-1.645,2.845-7.75,6.803-9.083c0.769,4.208,1.823,10.67,4.531,10.601c0.849-5.277-1.078-10.21-3.018-14.395
			C193.291,22.676,197.227,17.824,197.295,14.397z M174.615,31.817c1.445,2.587,0.883,7.209,4.531,7.577
			c-1.262-7.957-4.325-20.305-9.82-26.514c-2.925,8.025-10.141,19.512-8.317,27.273c2.26-2.277,2.788-6.29,4.531-9.083
			C171.162,31.345,170.933,31.253,174.615,31.817z M158.738,31.817c7.525-9.578-4.268-20.478-14.363-14.384
			c2.696,7.658,1.399,19.305,6.803,24.237c1.675-3.139-0.688-5.542-0.757-9.095C153.53,32.656,156.627,32.725,158.738,31.817z"/>
		<path fill="#2A2A4C" d="M183.689,9.856c1.904-1.173,5.771,0.932,9.063,0.748c-0.034,0.471-0.104,0.896-0.757,0.759
			c-4.601,0.575-6.849-1.208-11.334-0.759C180.799,9.488,182.484,9.914,183.689,9.856z"/>
		<path fill="#2A2A4C" d="M188.221,308.351c0,0.759,0,1.518,0,2.276c-1.216,0.207-1.296-0.724-2.271-0.759c0-0.506,0-1.012,0-1.518
			C186.706,308.351,187.464,308.351,188.221,308.351z"/>
		<path fill="#2A2A4C" d="M186.706,296.979c2.708-0.38,1.732,6.795,0.758,7.577C184.939,304.625,187.108,299.037,186.706,296.979z"
			/>
		<path fill="#AA2329" d="M180.661,284.102c3.2-0.92,7.893-1.874,9.831,0c-1.399,2.392-5.346,2.23-9.074,2.276
			C181.017,285.769,180.626,285.148,180.661,284.102z"/>
		<path fill="#A27A3E" d="M184.446,194.706c1.698,6.853,4.153,26.641-1.514,31.067c-4.188-4.944-0.551-14.177-1.515-21.973
			c-5.472,8.382-13.491,6.888-18.894-0.759c-2.971,2.875,1.698,25.422-5.3,19.696c0-5.807,0-11.613,0-17.42
			c-1.319-4.069-0.034-6.783,0.757-11.371c6.837,1.495,8.776,7.876,14.363,10.612C178.057,202.962,178.194,195.775,184.446,194.706z
			"/>
		<path fill="#2A2A4C" d="M183.689,9.856c-1.205,0.058-2.891-0.368-3.028,0.748c-8.971,0.149-14.948-0.345-22.68,0
			c0-0.242,0-0.495,0-0.748C164.841,8.637,176.841,8.557,183.689,9.856z"/>
		<path fill="#A27A3E" d="M183.689,255.312c-0.138,0.655,0.287,0.724,0.757,0.759c-2.649,5.036-18.091,3.863-20.419,0.759
			c0-4.542,0-9.083,0-13.637c-0.815-3.955-0.654-10.485,1.514-13.636c6.791,4.208,0.355,17.051,3.786,24.248
			C172.458,255.967,180.523,253.185,183.689,255.312z"/>
		<path fill="#A27A3E" d="M183.689,41.67c-3.224-0.311-7.789,0.736-9.831-0.759c-1.561-0.448-4.968,0.943-5.289-0.759
			C174.202,40.061,179.56,40.245,183.689,41.67z"/>
		<path fill="#2A2A4C" d="M179.903,296.979c0.758,0,1.515,0,2.271,0c-0.206,2.575,0.585,6.151-0.757,7.577
			C178.114,302.245,181.647,299.543,179.903,296.979z"/>
		<path fill="#A27A3E" d="M167.813,161.374c2.994,7.451,17.804,8.784,12.849,19.696c-2.868,6.323-15.992,5.392-15.877-3.024
			c3.912-2.563,4.508,3.817,9.832,2.266c0.608-0.139,0.757-0.76,1.515-0.76c-0.207-11.589-17.208-8.91-12.103-23.478
			c4.141-3.013,13.812-3.507,13.617,3.783c-2.363,1.989-4.726-0.885-6.814-1.518C169.063,158.58,169.143,160.684,167.813,161.374z"
			/>
		<path fill="#2A2A4C" d="M181.418,46.212c-2.294-0.471-6.516,0.978-7.56-0.747C176.152,45.936,180.374,44.487,181.418,46.212z"/>
		<path fill="#A27A3E" d="M183.689,255.312c-3.166-2.127-11.231,0.655-14.363-1.507
			C173.858,254.563,181.567,252.126,183.689,255.312z"/>
		<path fill="#A27A3E" d="M179.146,103.793c1.067,8.095-10.772,8.083-14.363,3.794c-5.047-6.048-2.776-23.8,3.786-25.767
			c3.063-0.92,11.713-0.586,9.82,6.06c-3.018,0-4.531-1.506-7.56-1.506c-5.277,2.173-5.277,16.764,0,18.937
			C174.19,105.391,175.269,103.195,179.146,103.793z"/>
		<path fill="#C2D3C6" d="M179.146,337.142c0,0.253,0,0.506,0,0.759c-2.513,0-5.036,0-7.56,0
			C172.642,336.164,176.853,337.612,179.146,337.142z"/>
		<path fill="#A27A3E" d="M179.146,119.706c-3.224,2.495-4.118-2.599-8.317-1.518c-1.079,0.425-1.835,1.184-2.26,2.276
			c5.22,6.91,19.801,18.546,5.289,25.755c-4.21-1.84-10.153-1.955-9.832-8.336c3.74-2.38,5.254,3.07,9.074,3.035
			c8.558-8.635-9.854-11.268-9.82-19.696C163.315,112.658,178.424,110.232,179.146,119.706z"/>
		<path fill="#FFDFAA" d="M179.146,39.394c-3.648-0.368-3.086-4.99-4.531-7.577c-3.683-0.563-3.453-0.472-9.074-0.748
			c-1.744,2.794-2.271,6.807-4.531,9.083c-1.824-7.761,5.392-19.248,8.317-27.273C174.821,19.089,177.885,31.438,179.146,39.394z
			 M173.101,28.793c-1.182-3.357-1.652-7.428-3.774-9.854c-1.25,4.369-1.721,5.818-3.029,9.095
			C169.051,27.804,171.219,28.149,173.101,28.793z"/>
		<path fill="#2A2A4C" d="M174.615,304.557c0.723-2.3-1.618-7.681,1.515-7.577C175.406,299.29,177.747,304.671,174.615,304.557z"/>
		<path fill="#AA2329" d="M173.101,51.524c-0.012,1.782,1.307,2.231,0.757,4.542c-1.962,0.966-2.283,1.667-4.532,0.759
			c0-2.012-0.287-4.323,0.757-5.301C171.082,51.524,172.091,51.524,173.101,51.524z"/>
		<path fill="#A27A3E" d="M168.569,40.153c0.321,1.702,3.729,0.311,5.289,0.759c-4.291,1.759-11.839,0.265-17.38,0.759
			C159.277,39.934,165.518,41.647,168.569,40.153z"/>
		<path fill="#2A2A4C" d="M169.327,18.939c2.122,2.426,2.593,6.496,3.774,9.854c-1.882-0.644-4.05-0.989-6.803-0.759
			C167.606,24.757,168.076,23.309,169.327,18.939z"/>
		<path fill="#2A2A4C" d="M167.055,296.979c1.01,0,2.019,0,3.029,0c-0.471,2.828,1.422,8.002-2.271,7.577
			C166.654,301.831,167.629,300.889,167.055,296.979z"/>
		<path fill="#A27A3E" d="M164.027,243.192c0,4.554,0,9.095,0,13.637C162.776,254.035,162.776,245.998,164.027,243.192z"/>
		<path fill="#2A2A4C" d="M163.281,296.979c0.62,2.15-1.067,1.966-0.757,3.794c-0.172,1.346,0.757,3.794-1.514,3.035
			c0-2.276,0-4.553,0-6.829C161.767,296.979,162.524,296.979,163.281,296.979z"/>
		<path fill="#2A2A4C" d="M162.524,300.773c1.732,0.598,0.734,4.691-1.514,3.783c-0.918-1.139-1.48-6.52,0-7.577
			c0,2.276,0,4.553,0,6.829C163.281,304.567,162.352,302.119,162.524,300.773z"/>
		<path fill="#FFDFAA" d="M144.375,17.433c10.095-6.094,21.888,4.806,14.363,14.384c-2.111,0.908-5.208,0.839-8.317,0.759
			c0.069,3.553,2.432,5.956,0.757,9.095C145.775,36.738,147.071,25.091,144.375,17.433z M157.224,28.793
			c0.815-3.07,0.815-5.266,0-8.336c-2.776-1-5.851-1.713-9.82-1.518c0.998,3.288,2.375,6.208,2.271,10.612
			C152.475,31.092,154.425,29.287,157.224,28.793z"/>
		<path fill="#2A2A4C" d="M157.981,9.856c0,0.253,0,0.506,0,0.748c-3.109-0.092-4.727,1.322-8.306,0.759
			c-0.654,0.138-0.723-0.288-0.757-0.759C152.13,10.558,154.195,9.339,157.981,9.856z"/>
		<path fill="#2A2A4C" d="M157.224,20.457c0.815,3.07,0.815,5.266,0,8.336c-2.799,0.494-4.749,2.299-7.548,0.759
			c0.104-4.404-1.273-7.324-2.271-10.612C151.373,18.744,154.448,19.457,157.224,20.457z"/>
		<path fill="#A27A3E" d="M157.224,205.318c0,5.807,0,11.613,0,17.42C155.974,218.68,155.974,209.366,157.224,205.318z"/>
		<path fill="#AA2329" d="M157.981,283.343c-0.401,4.646-5.828,0.862-9.063,1.518c0-0.759,0-1.518,0-2.265
			C152.692,282.078,154.769,283.297,157.981,283.343z"/>
		<path fill="#2A2A4C" d="M154.207,304.557c0.723-2.3-1.617-7.681,1.515-7.577C155.342,298.716,157.706,304.258,154.207,304.557z"/>
		<path fill="#AA2329" d="M163.281,49.248c-7.376,4.45-15.579,3.277-22.68,5.3c-40.174,11.44-72.318,42.473-83.147,84.854
			c-1.778,6.968-1.434,15.177-6.046,21.972c3.075-30.503,13.72-53.418,29.471-71.217c3.591-2.966,6.872-6.243,9.832-9.842
			C109.226,64.275,130.908,51.397,163.281,49.248z"/>
		<path fill="#A27A3E" d="M147.404,42.429c0.757,0,1.515,0,2.271,0c-13.904,2.484-25.433,7.347-37.042,12.119
			c-4.83-8.037-10.703-15.039-14.363-24.237c12.63-7.048,26.993-12.349,43.845-15.154C144.054,24.067,145.741,33.231,147.404,42.429
			z M144.375,41.67c-0.803-6.841-2.833-18.822-6.803-24.996c-11.38,2.759-39.601,12.21-28.726,28.032
			C115.982,55.065,135.496,42.004,144.375,41.67z"/>
		<path fill="#2A2A4C" d="M148.161,297.738c2.982-0.46,0.883,4.162,1.514,6.07C147.84,303.096,147.071,299.061,148.161,297.738z"/>
		<path fill="#2A2A4C" d="M148.918,10.604c0.034,0.471,0.103,0.896,0.757,0.759c-1.331,1.207-4.038,1.023-6.057,1.518
			c-0.115-0.885-1.376-0.632-2.26-0.759C143.022,10.764,146.739,11.466,148.918,10.604z"/>
		<path fill="#A27A3E" d="M125.481,156.074c12.837-5.174,22.187,4.116,21.922,14.395c-0.298,11.303-12.103,16.247-21.922,14.396
			C124.3,176.896,124.185,164.019,125.481,156.074z M130.013,180.312c17.162,2.299,15.28-24.594,0-20.455
			C128.774,165.03,128.774,175.137,130.013,180.312z"/>
		<path fill="#DB262A" d="M134.556,60.607c19.468,11.13,9.12,59.95,10.577,84.095c-14.741-0.126-28.198,0.081-40.816,0
			c-17.862-0.115-33.544,2.783-42.331-12.119C74.764,97.159,98.718,72.933,134.556,60.607z M113.39,138.643
			c28.152-0.748,36.182-48.785,4.531-54.546c-22.646-4.116-37.765,17.948-29.482,39.392
			C93.257,131.997,102.549,138.931,113.39,138.643z"/>
		<path fill="#DB262A" d="M145.132,196.224c-2.156,20.041,2.409,47.188-0.757,68.183c-0.7,4.622-2.96,8.968-6.803,11.371
			c-27.934-6.703-47.333-24.904-61.982-45.462c-3.98-5.588-12.78-16.58-12.091-23.49c0.631-6.301,11.323-10.636,18.894-11.36
			C96.699,194.085,129.76,196.673,145.132,196.224z M112.633,252.287c29.62,0.173,34.002-37.827,13.605-49.245
			c-26.052-14.579-51.898,19.523-33.257,40.15C98.672,249.493,105.383,252.241,112.633,252.287z"/>
		<path fill="#2A2A4C" d="M141.358,12.121c0.883,0.126,2.145-0.126,2.26,0.759c-3.224,0.046-5.529,1.023-8.306,1.518
			c0-0.253,0-0.506,0-0.759C136.517,12.328,138.708,11.995,141.358,12.121z"/>
		<path fill="#FFDFAA" d="M137.573,16.674c3.969,6.174,6,18.155,6.803,24.996c-8.879,0.333-28.393,13.395-35.528,3.036
			C97.972,28.885,126.192,19.434,137.573,16.674z M142.115,40.153c0.241-3.519-1.514-5.047-1.514-8.336
			c-4.153-0.115-4.944,3.127-4.543,7.577C137.871,39.854,139.511,40.486,142.115,40.153z M133.041,26.517
			c2.123,1.149,2.972,3.587,6.803,3.035c-0.723-3.059-1.538-6.036-2.271-9.095C134.429,20.836,133.936,23.883,133.041,26.517z
			 M130.77,34.093c-2.501,3.783,0.86,10.21,5.288,6.818c-2.535-0.483-2.42-3.633-2.26-6.818
			C132.789,34.093,131.779,34.093,130.77,34.093z M126.996,28.034c1.044,1.989,2.776,3.277,6.045,3.035
			c-1.548-3.679-1.95-6.714-1.514-9.095C130.437,24.412,127.202,24.711,126.996,28.034z M130.013,43.947
			c1.606-2.162-2.799-3.369-1.503-7.577C120.904,35.427,122.648,45.764,130.013,43.947z M121.707,32.576
			c2.352,0.667,6.264,2.518,7.548,0c-1.938-1.069-4.268-1.771-4.531-4.542c-1.445-3.208,5.38-4.53,1.514-5.301
			C122.063,24.044,120.571,27.873,121.707,32.576z M123.21,34.852c-5.725,0.058-2.902-6.634-4.531-9.095
			c-3.109,2.737-3.327,7.29-0.757,10.613C120.055,36.244,123.106,37.014,123.21,34.852z M118.679,43.947
			c0.872,0.632,2.03,1,3.774,0.759c-0.803-1.966-0.47-5.082-2.26-6.071C119.608,40.325,118.598,41.59,118.679,43.947z
			 M113.39,28.793c-5.977,4.266-5.059,18.868,4.531,18.178C110.235,43.395,111.566,35.324,113.39,28.793z"/>
		<path fill="#A27A3E" d="M140.601,31.817c0,3.289,1.755,4.817,1.514,8.336c-2.604,0.333-4.244-0.299-6.057-0.759
			C135.657,34.944,136.448,31.702,140.601,31.817z"/>
		<path fill="#A27A3E" d="M139.844,29.552c-3.832,0.552-4.681-1.886-6.803-3.035c0.895-2.633,1.388-5.68,4.532-6.06
			C138.307,23.516,139.121,26.493,139.844,29.552z"/>
		<path fill="#AA2329" d="M137.573,280.319c-10.669,0.391-21.372-7.003-30.985-12.878c-28.106-17.166-48.905-46.382-54.422-86.371
			c5.438,5.909,4.072,14.096,6.045,20.454C70.222,240.376,99.808,265.832,137.573,280.319z"/>
		<path fill="#2A2A4C" d="M136.058,109.853c0.31,10.521-6.206,20.569-16.623,23.49c-28.611,8.014-34.071-26.123-25.697-37.126
			C105.096,81.292,135.301,83.81,136.058,109.853z M124.724,101.517c1.835-1.023,0.47-1.506,1.514-2.265
			c-1.996-1.265-0.31-3.369-1.514-7.577c-2.616-0.609-2.902,1.127-5.289,0.759c-20.844-11.75-29.712,26.192-15.12,36.368
			c10.68,7.439,25.077-2.978,20.408-12.13c-5.07,3.576-3.201,9.75-9.82,10.612c-17.954,2.311-17.162-32.458-3.786-33.332
			C116.889,93.572,118.851,97.251,124.724,101.517z"/>
		<path fill="#2A2A4C" d="M135.313,13.639c0,0.253,0,0.506,0,0.759c-5.632,1.173-10.875,2.737-15.877,4.542
			c0.138-0.644-0.298-0.713-0.757-0.759C123.542,15.984,128.797,14.191,135.313,13.639z"/>
		<path fill="#A27A3E" d="M136.058,40.912c-4.428,3.392-7.789-3.036-5.288-6.818c1.009,0,2.019,0,3.028,0
			C133.638,37.278,133.523,40.429,136.058,40.912z"/>
		<path fill="#FFDFAA" d="M130.013,159.856c15.28-4.139,17.162,22.754,0,20.455C128.774,175.137,128.774,165.03,130.013,159.856z"/>
		<path fill="#A27A3E" d="M133.041,31.069c-3.269,0.242-5.001-1.046-6.045-3.035c0.207-3.323,3.441-3.622,4.531-6.06
			C131.091,24.355,131.493,27.39,133.041,31.069z"/>
		<path fill="#2A2A4C" d="M131.527,210.619c17.311,21.375-14.592,52.637-35.528,31.056c-12.504-12.889-5.128-35.413,14.363-37.874
			C119.826,202.605,127.076,205.112,131.527,210.619z M109.604,229.557c25.054,6.208,17.414-32.505-3.774-19.696
			c0.103,4.128,0.39,9.278,0.757,13.637c0.619,7.438-3.58,18.373,3.017,19.695C110.534,240.227,110.488,234.018,109.604,229.557z"/>
		<path fill="#A27A3E" d="M128.51,36.37c-1.296,4.208,3.109,5.416,1.503,7.577C122.648,45.764,120.904,35.427,128.51,36.37z"/>
		<path fill="#A27A3E" d="M129.255,32.576c-1.285,2.518-5.197,0.667-7.548,0c-1.136-4.703,0.355-8.531,4.531-9.842
			c3.866,0.771-2.959,2.093-1.514,5.301C124.988,30.805,127.317,31.506,129.255,32.576z"/>
		<path fill="#FCE1B8" d="M126.238,203.042c20.397,11.418,16.015,49.418-13.605,49.245c-7.25-0.046-13.961-2.794-19.651-9.095
			C74.34,222.565,100.186,188.463,126.238,203.042z M95.999,241.675c20.936,21.581,52.839-9.681,35.528-31.056
			c-4.451-5.507-11.701-8.014-21.166-6.818C90.871,206.262,83.495,228.786,95.999,241.675z"/>
		<path fill="#FCE1B8" d="M126.238,99.251c-1.044,0.759,0.321,1.242-1.514,2.265c-5.874-4.266-7.835-7.945-13.605-7.565
			c-13.376,0.874-14.168,35.643,3.786,33.332c6.619-0.862,4.75-7.037,9.82-10.612c4.669,9.152-9.728,19.569-20.408,12.13
			c-14.592-10.175-5.725-48.118,15.12-36.368c2.386,0.368,2.673-1.368,5.289-0.759C125.929,95.883,124.242,97.987,126.238,99.251z"
			/>
		<path fill="#FFDFAA" d="M108.102,290.92c0.321-14.119,24.183-8.934,17.38,4.553c-5.082-2.173-2.088-9.358-8.317-9.095
			c-12.47,0.541,5.346,15.833,0.757,23.49c-2.845,3.186-10.669,2.782-13.605,0c-0.723-2.311-2.088-8.922,1.514-9.095
			c4.704,0.46-0.138,5.795,3.017,7.577c2.008-0.012,4.325,0.287,5.3-0.759C114.595,298.773,107.929,297.945,108.102,290.92z"/>
		<path fill="#A27A3E" d="M118.679,25.757c1.629,2.461-1.193,9.152,4.531,9.095c-0.104,2.162-3.155,1.392-5.289,1.518
			C115.352,33.047,115.57,28.494,118.679,25.757z"/>
		<path fill="#A27A3E" d="M122.453,44.706c-1.744,0.241-2.902-0.126-3.774-0.759c-0.081-2.357,0.929-3.622,1.514-5.312
			C121.982,39.624,121.65,42.74,122.453,44.706z"/>
		<path fill="#2A2A4C" d="M118.679,18.181c0.458,0.046,0.895,0.115,0.757,0.759c-3.751,1.299-6.814,3.277-11.334,3.794
			c0-0.253,0-0.506,0-0.759C111.417,20.503,114.652,18.939,118.679,18.181z"/>
		<path fill="#FCE1B8" d="M117.921,84.097c31.651,5.761,23.621,53.798-4.531,54.546c-10.841,0.288-20.133-6.646-24.951-15.154
			C80.156,102.045,95.276,79.981,117.921,84.097z M119.436,133.342c10.417-2.92,16.933-12.969,16.623-23.49
			c-0.757-26.042-30.962-28.561-42.319-13.636C85.364,107.22,90.825,141.356,119.436,133.342z"/>
		<path fill="#2A2A4C" d="M110.361,211.378c10.921-3.069,14.306,9.555,8.317,14.396c-2.776,0-5.541,0-8.317,0
			C110.235,218.897,109.455,216.253,110.361,211.378z"/>
		<path fill="#A27A3E" d="M117.921,46.971c-9.59,0.689-10.508-13.913-4.531-18.178C111.566,35.324,110.235,43.395,117.921,46.971z"
			/>
		<path fill="#FCE1B8" d="M105.83,209.86c21.188-12.809,28.829,25.904,3.774,19.696c0.883,4.461,0.929,10.67,0,13.636
			c-6.597-1.322-2.398-12.257-3.017-19.695C106.22,219.139,105.933,213.988,105.83,209.86z M118.679,225.773
			c5.988-4.841,2.604-17.465-8.317-14.396c-0.906,4.875-0.126,7.52,0,14.396C113.138,225.773,115.902,225.773,118.679,225.773z"/>
		<path fill="#A27A3E" d="M108.102,154.556c5.575,4.116,3.315,23.777,1.503,30.308c-7.858-4.001-10.348-13.372-16.623-18.948
			c-3.051,4.783,2.73,18.396-3.786,19.695c-2.466-6.898-2.466-23.398,0-30.296c7.973,3.875,10.141,13.567,16.634,18.937
			C107.906,170.297,104.66,159.098,108.102,154.556z"/>
		<path fill="#2A2A4C" d="M108.102,21.975c0,0.253,0,0.506,0,0.759c-2.983,2.817-8.18,3.427-11.346,6.06
			c0.138-0.644-0.298-0.713-0.757-0.759C99.222,25.206,103.96,23.883,108.102,21.975z"/>
		<path fill="#FFDFAA" d="M95.999,291.679c-1.354-9.244,12.7-6.323,9.074,0.759C102.664,295.024,97.789,295.024,95.999,291.679z"/>
		<path fill="#2A2A4C" d="M92.225,59.101c0.826,6.128-2.226,8.371-4.543,11.36c-3.556-1.23-5.243-4.334-7.548-6.818
			C80.971,59.228,87.899,55.272,92.225,59.101z"/>
		<path fill="#FFDFAA" d="M90.71,53.789c12.206,4.208,3.809,22.317-5.289,21.213c-2.994-0.356-7.468-7.887-9.832-10.601
			c-3.694-4.254-7.767-6.807-9.074-11.372c1.549-7.853,15.912-11.463,20.42-3.783c0.092,1.863,0.103,3.645-0.757,4.542
			C87.682,53.789,89.196,53.789,90.71,53.789z M87.682,70.461c2.317-2.989,5.369-5.231,4.543-11.36
			c-4.325-3.829-11.254,0.126-12.091,4.542C82.439,66.126,84.125,69.231,87.682,70.461z M77.104,59.101
			c2.444-2.357,6.149-3.438,5.289-9.095c-3.487-1.702-10.129-0.771-10.577,3.024C71.506,54.134,74.225,58.676,77.104,59.101z"/>
		<path fill="#FFDFAA" d="M86.179,281.837c7.996-8.313,13.525,11.142,0.757,6.06C86.477,286.079,85.846,284.436,86.179,281.837z"/>
		<path fill="#2A2A4C" d="M90.71,53.789c-1.515,0-3.029,0-4.532,0c0.86-0.896,0.849-2.679,0.757-4.542
			C87.67,51.283,88.152,53.582,90.71,53.789z"/>
		<path fill="#FFDFAA" d="M92.981,266.683c-0.138,5.082-4.795,10.21-8.317,14.396c-3.487,4.127-7.422,9.152-12.091,11.359
			c-2.627-2.932-1.101-10.015-2.271-14.396c1.813-6.863-6.137-3.943-10.588-4.541c-2.558-0.207-6.126,0.586-7.548-0.759
			c0.849-5.956,6.849-8.738,10.577-12.119c3.488-3.162,6.872-8.818,12.849-9.095c-2.604,8.497-11.242,10.958-15.877,17.431
			c2.891,2.15,10.692-0.609,13.605,1.507c1.033,4.023,1.422,8.681,1.514,13.636C82.382,279.802,83.953,269.5,92.981,266.683z"/>
		<path fill="#2A2A4C" d="M82.393,50.006c0.86,5.657-2.845,6.738-5.289,9.095c-2.879-0.425-5.598-4.967-5.289-6.071
			C72.264,49.236,78.906,48.305,82.393,50.006z"/>
		<path fill="#C2D3C6" d="M90.71,80.314c-2.96,3.599-6.241,6.876-9.832,9.842C83.838,86.558,87.12,83.27,90.71,80.314z"/>
		<path fill="#549A77" d="M59.713,273.501c4.451,0.598,12.401-2.322,10.588,4.541c-1.641,0.127-0.344-2.69-0.757-3.782
			C66.505,273.766,61.503,275.237,59.713,273.501z"/>
		<path fill="#FFDFAA" d="M60.471,77.279c-3.396-7.577,9.533-10.463,9.074-1.518C68.432,78.9,63.029,79.763,60.471,77.279z"/>
		<path fill="#FFDFAA" d="M60.471,250.77c1.916,2.081,2.65,4.174,1.514,7.577c-4.107,1.862-9.499,0.448-8.317-5.301
			c0.734-0.022,0.585-0.931,0.757-1.518C56.237,251.068,57.878,250.437,60.471,250.77z"/>
		<path fill="#FFDFAA" d="M60.471,81.062c1.388,9.417-8.409,7.911-9.063,3.035C50.857,80.016,57.063,76.957,60.471,81.062z"/>
		<path fill="#FFDFAA" d="M57.454,228.038c0.275,16.672-31.215,19.88-34.014,3.036C21.42,218.943,32.158,214,44.605,214.402
			c3.361,0.598,1.48-4.059,4.531-3.783c3.453,0.092,0.413,4.301,0,5.301C54.379,219.369,57.35,222.232,57.454,228.038z
			 M46.108,237.892c5.724-2.311,10.359-12.854,2.271-17.431c-2.673-0.402-1.859,2.691-4.532,2.277
			c-0.872-0.897-0.86-2.68-0.757-4.542C18.186,217.886,30.047,244.365,46.108,237.892z"/>
		<path fill="#AA2329" d="M57.454,171.976c-0.998,0.275-1.193,1.333-2.271,1.518c-3.568-0.253-3.212-4.197-1.515-6.06
			C56.822,167.054,57.304,169.354,57.454,171.976z"/>
		<path fill="#FFDFAA" d="M50.65,241.675c13.468-1.897-2.099,17.614-3.786,5.313C46.417,243.664,48.092,242.043,50.65,241.675z"/>
		<path fill="#FFDFAA" d="M40.819,78.797c8.776,7.105,14.133,17.649,18.148,29.549c-9.315,0.023-25.64,3.438-34.771,0.748
			c6.332-6.588,20.007-1.69,29.471-4.542C50.146,95.618,41.427,88.156,40.819,78.797z"/>
		<path fill="#2A2A4C" d="M48.379,220.461c8.087,4.576,3.453,15.12-2.271,17.431c-16.061,6.474-27.922-20.006-3.017-19.695
			c-0.104,1.862-0.115,3.645,0.757,4.542C46.521,223.152,45.706,220.059,48.379,220.461z"/>
		<path fill="#FFDFAA" d="M40.819,169.71c5.656,1.909,3.373,11.773,4.543,18.178c-10.038,1.023-23.265,6.187-31.754,3.795
			c5.289-6.071,18.458-4.231,27.211-6.818C41.313,179.185,38.204,172.987,40.819,169.71z"/>
		<path fill="#FFDFAA" d="M31.745,120.465c-0.184-10.98,14.775-3.277,6.803,3.024C34.728,124.041,33.11,122.385,31.745,120.465z"/>
		<path fill="#FFDFAA" d="M37.802,129.548c0.826,5.852-10.256,8.612-9.074-1.506C31.688,124.317,37.309,126.122,37.802,129.548z"/>
		<path fill="#FFDFAA" d="M28.728,206.078c3.178-3.542,9.281-2.035,9.074,3.782C35.921,214.62,26.674,213.632,28.728,206.078z"/>
		<path fill="#FFDFAA" d="M34.773,196.982c0.849,11.36-15.613-0.184-6.803-3.794C31.871,191.602,34.567,194.224,34.773,196.982z"/>
		<path fill="#FFDFAA" d="M15.879,138.643c7.95,1.667,25.376,0.288,30.229,7.577c-8.696-0.667-23.976-1.185-30.985-6.06
			C14.996,139.275,15.283,138.815,15.879,138.643z"/>
		<path fill="#FFDFAA" d="M24.197,158.339c-4.864-8.037,9.808-10.819,8.305-1.506C31.688,159.132,26.583,159.995,24.197,158.339z"/>
		<path fill="#FFDFAA" d="M31.745,166.675c-1.962,6.105-12.218,3.162-9.063-3.783C26.285,160.178,31.47,161.926,31.745,166.675z"/>
	</g>
	<g>
	</g>
</g>
</svg>
